# xmcd CD database file
#
# Track frame offsets:
#	150
#	12935
#	24602
#	41158
#	52539
#	61946
#	70507
#	83262
#	94417
#	110051
#	126005
#	138634
#	155776
#	172207
#	183120
#	196139
#	207588
#
# Disc length: 3006 seconds
#
# Revision: 0
# Processed by: cddbd v1.5.2PL0 Copyright (c) Steve Scherf et al.
# Submitted via: CDex 1.51
#
DISCID=e80bbc11
DTITLE=Nathalia Abreu e Raphael - Nathalia Abreu e Raphael
DYEAR=2006
DGENRE=Country
TTITLE0=Nathalia Abreu e Raphael - Pé de Cedro
TTITLE1=Nathalia Abreu e Raphael - Mercedita
TTITLE2=Nathalia Abreu e Raphael - O Sol e a Lua
TTITLE3=Nathalia Abreu e Raphael - Apaixonado
TTITLE4=Nathalia Abreu e Raphael - Llegada
TTITLE5=Nathalia Abreu e Raphael - Felicidade
TTITLE6=Nathalia Abreu e Raphael - Hora H
TTITLE7=Nathalia Abreu e Raphael - Atração Fatal
TTITLE8=Nathalia Abreu e Raphael - Pra Lá de Bagda
TTITLE9=Nathalia Abreu e Raphael - Doce Deseijo
TTITLE10=Nathalia Abreu e Raphael - Na Sola da Bota
TTITLE11=Nathalia Abreu e Raphael - Bala de Sabão
TTITLE12=Nathalia Abreu e Raphael - Beleza Rara
TTITLE13=Nathalia Abreu e Raphael - Safado, Cachorro sem Vergonha
TTITLE14=Nathalia Abreu e Raphael - Estupido Cupido
TTITLE15=Nathalia Abreu e Raphael - Wisk Agogo
TTITLE16=Nathalia Abreu e Raphael - Palpite
EXTD=YEAR: 2006
EXTT0=
EXTT1=
EXTT2=
EXTT3=
EXTT4=
EXTT5=
EXTT6=
EXTT7=
EXTT8=
EXTT9=
EXTT10=
EXTT11=
EXTT12=
EXTT13=
EXTT14=
EXTT15=
EXTT16=
PLAYORDER=
